<svg id="Layer_1" data-name="Layer 1" xmlns="http://www.w3.org/2000/svg" viewBox="0 0 525.13 525.14"  width="150px" height="auto">
<path d="M314.84,49.66c145,0,262.57,117.56,262.57,262.57S459.86,574.8,314.84,574.8,52.28,457.25,52.28,312.23,169.83,49.66,314.84,49.66ZM459.16,491.37V426.19c0-57.2-46.8-104-104-104h-84.3c-57.2,0-104,46.81-104,104v65.18a12,12,0,0,0,12,12h268.3A12,12,0,0,0,459.16,491.37ZM406.08,203.8A91.24,91.24,0,1,0,314.84,295,91.23,91.23,0,0,0,406.08,203.8Z" transform="translate(-52.28 -49.66)" style="fill:#d1d3d4"/>
</svg>